<svg width="242" height="309" viewBox="0 0 242 309" fill="none" xmlns="http://www.w3.org/2000/svg">
<path fill-rule="evenodd" clip-rule="evenodd" d="M131.421 3.85329C129.135 5.1595 123.287 10.5087 118.424 14.9936C106.503 25.99 111.291 28.6387 93.8224 31.7041C85.5442 33.1561 75.9951 35.3804 75.7194 38.2027L65.5074 39.8895C56.688 46.6025 57.4604 44.7012 53.4387 47.0221C53.8992 48.4731 48.4728 52.6015 45.5475 53.0639C38.3909 59.0713 40.5261 62.1219 40.5261 60.7293C38.6694 63.5479 38.6694 63.9786 32.635 67.2279C29.8499 71.8697 23.2669 70.9729 23.2669 73.4804C23.2669 75.8914 15.9245 77.1939 15.3758 79.5148C9.54101 82.8077 4.23554 84.0168 0.986275 85.4093C-1.33464 90.5153 0.986273 90.6551 2.37882 90.5153C4.69972 89.2626 1.45046 91.1303 7.94897 87.4059C11.8657 85.1611 20.8281 81.1171 28.3729 77.1939C38.1801 72.0953 45.1966 65.3758 45.5475 63.9786C45.8799 62.6548 47.953 59.3368 49.8097 57.3018C51.4698 55.4824 51.7806 54.3005 52.5911 53.0639C53.396 51.8347 55.5869 50.354 57.4604 49.7719C59.3329 49.1908 62.9544 47.7639 65.5074 46.6025C68.0604 45.4402 73.6092 43.8341 77.8379 43.0329C82.0666 42.2318 86.9879 40.8179 88.774 39.8895C90.5593 38.9621 96.7087 35.8279 102.438 32.9249C111.268 28.4502 114.374 26.2249 122.837 18.3032C128.327 13.1638 133.208 8.95925 133.683 8.95925C134.157 8.95925 134.81 9.792 135.133 10.8086C136.303 14.4988 142.954 21.7567 146.927 23.6794C149.151 24.7553 155.345 26.7012 160.691 28.0018C173.763 31.1824 174.997 31.7552 179.297 36.6393C184.479 42.527 188.363 51.1951 190.434 61.4915C191.405 66.319 192.825 71.4751 193.588 72.9512C196.719 79.0069 204.633 83.2746 215.373 84.6997C219.511 85.2483 219.71 85.4089 219.349 87.8747C218.543 93.3604 227.414 97.0023 230.578 92.4849C231.834 90.6913 231.925 90.7693 232.476 94.1095C233.578 100.772 233.136 107.724 231.447 110.308C230.556 111.671 225.925 117.032 221.155 122.219C210.543 133.764 208.542 137.79 209.156 146.371C209.74 154.524 212.575 160.47 221.104 171.423C227.696 179.889 227.973 180.446 228.027 185.348C228.059 188.156 228.568 193.587 229.159 197.417C229.75 201.246 230.247 207.628 230.263 211.597C230.29 218.386 230.158 218.866 228.051 219.667C225.432 220.663 225.274 221.095 223.309 232.694C222.489 237.545 220.744 245.807 219.434 251.054C217.316 259.543 216.857 260.531 215.273 260.029C212.739 259.224 211.14 260.916 209.234 266.419L207.569 271.222L206.97 265.187C206.641 261.868 206.321 256.02 206.26 252.19C206.15 245.201 202.824 230.498 200.215 225.45C199.488 224.045 196.82 217.476 194.287 210.852C177.18 166.127 153.296 121.331 140.625 110.205C136.351 106.452 132.288 106.334 130.749 109.919C130.146 111.322 129.567 112.607 129.462 112.772C129.358 112.938 128.001 112.415 126.448 111.612C123.557 110.117 118.228 109.731 114.451 110.743C112.418 111.288 112.358 111.581 112.942 118.028L113.551 124.745L110.897 125.411C105.866 126.674 95.1695 132.12 91.6473 135.214C89.6355 136.979 86.5747 141.38 84.5342 145.438C81.8577 150.762 79.5581 153.769 75.4372 157.34C69.193 162.749 68.3194 165.071 69.7017 172.581C70.9383 179.301 76.658 190.292 80.921 194.143C85.0578 197.881 91.1209 199.795 101.677 200.695C105.743 201.042 110.08 201.709 111.316 202.18C113.461 202.995 113.544 203.327 113.107 209.418C112.571 216.914 108.714 225.928 104.04 230.608C102.381 232.269 97.8367 236.013 93.9422 238.929C67.7606 258.526 64.2188 265.595 56.7724 280.041C51.1475 290.952 45.6248 297.85 45.5478 303.25C45.5014 306.499 46.5604 306.035 47.953 307.428C49.3455 308.82 50.5275 309.04 51.5821 307.892C53.7368 305.547 58.5298 301.111 61.1747 294.15C63.6823 287.55 72.0236 273.978 77.5056 267.576C80.0976 264.549 87.0695 257.828 92.999 252.64C109.938 237.819 115.838 230.706 119.55 220.626C123.558 209.745 123.135 202.828 118.171 198.094C114.658 194.742 111.363 193.665 101.829 192.755C91.8413 191.802 86.5497 188.987 81.9858 182.199C78.3596 176.805 78.2566 174.895 81.2896 169.191C82.5661 166.79 83.6105 164.299 83.6105 163.656C83.6105 163.013 84.8981 161.259 86.4707 159.76C88.0443 158.26 90.7913 154.43 92.5756 151.247C96.6029 144.067 102.444 138.826 109.387 136.165C127.467 129.237 132.54 126.308 135.125 121.31C135.923 119.768 136.941 118.506 137.389 118.506C138.467 118.506 143.938 126.846 147.475 133.884C149.032 136.981 153.432 146.799 157.252 155.701C172.553 191.355 176.608 200.575 185.805 220.626L195.387 241.514L195.686 270.671C196.037 304.856 194.685 310.281 204.298 306.359C205.134 306.019 207.132 298.13 207.447 296.556C208.524 291.168 212.188 282.938 213.686 282.538C217.962 281.395 224.61 266.781 228.441 250.101C229.676 244.725 230.981 241.05 231.654 241.05C236.33 241.05 239.575 229.156 239.575 212.025C239.575 201.868 239.882 198.741 241.052 196.953C242.422 194.863 242.379 194.172 240.448 187.47C237.55 177.412 234.867 172.264 227.468 162.572C221.196 154.353 218.223 148.346 218.223 143.889C218.223 139.648 220.868 135.363 229.278 125.978C241.253 112.615 241.015 113.21 240.727 97.3235C240.362 77.1437 239.413 76.0575 220.694 74.406C207.808 73.2687 206.096 72.7563 202.561 68.9778C200.811 67.1063 200.206 65.0862 199.602 59.0945C198.646 49.6057 196.769 43.939 192.321 37.1007C185.071 25.9585 173.923 18.3914 161.971 16.5022C149.181 14.4802 145.165 12.1333 141.633 4.61452C140.716 2.66404 139.505 0.760887 138.943 0.385829C136.897 -0.977007 135.485 1.53053 131.421 3.85329ZM232.148 87.0512C232.148 87.5618 231.731 87.7215 231.22 87.4058C230.709 87.0902 230.292 86.4143 230.292 85.9037C230.292 85.3931 230.709 85.2335 231.22 85.5491C231.731 85.8648 232.148 86.5406 232.148 87.0512ZM122.663 117.61C124.869 118.791 124.961 119.971 122.908 120.759C121.339 121.361 119.857 119.94 119.831 117.81C119.814 116.399 120.331 116.362 122.663 117.61Z" fill="white"/>
</svg>
