<svg width="633" height="325" viewBox="0 0 633 325" fill="none" xmlns="http://www.w3.org/2000/svg">
<path d="M126.393 316.338L124.013 313.934C123.349 314.549 122.677 315.035 121.997 315.391C121.334 315.747 120.516 315.925 119.545 315.925C118.816 315.925 118.145 315.788 117.529 315.512C116.93 315.221 116.412 314.833 115.975 314.347C115.554 313.861 115.223 313.295 114.98 312.647C114.737 312 114.615 311.312 114.615 310.583V310.535C114.615 309.806 114.737 309.126 114.98 308.495C115.223 307.847 115.562 307.281 116 306.795C116.437 306.309 116.955 305.929 117.554 305.654C118.169 305.379 118.833 305.241 119.545 305.241C120.403 305.241 121.172 305.411 121.852 305.751C122.548 306.091 123.228 306.56 123.891 307.159L126.271 304.415C125.883 304.027 125.462 303.671 125.008 303.347C124.555 303.023 124.061 302.748 123.527 302.521C122.993 302.295 122.394 302.117 121.73 301.987C121.083 301.858 120.362 301.793 119.569 301.793C118.258 301.793 117.06 302.028 115.975 302.497C114.891 302.95 113.96 303.582 113.183 304.391C112.406 305.184 111.799 306.115 111.362 307.184C110.924 308.236 110.706 309.369 110.706 310.583V310.632C110.706 311.846 110.924 312.987 111.362 314.056C111.799 315.124 112.406 316.055 113.183 316.848C113.96 317.625 114.883 318.24 115.951 318.694C117.019 319.147 118.177 319.373 119.423 319.373C120.249 319.373 120.994 319.301 121.657 319.155C122.321 319.025 122.928 318.831 123.479 318.572C124.045 318.297 124.563 317.973 125.033 317.601C125.502 317.228 125.955 316.808 126.393 316.338ZM142.329 319.082V315.755H133.101V312.186H141.115V308.859H133.101V305.411H142.207V302.084H129.386V319.082H142.329ZM160.757 319.082V302.084H157.066V312.55L149.102 302.084H145.654V319.082H149.345V308.276L157.576 319.082H160.757ZM177.708 305.532V302.084H163.624V305.532H168.796V319.082H172.535V305.532H177.708ZM195.275 319.082L191.122 313.011C192.207 312.607 193.081 311.975 193.745 311.117C194.425 310.243 194.765 309.118 194.765 307.742V307.693C194.765 305.929 194.198 304.553 193.065 303.565C191.948 302.578 190.378 302.084 188.354 302.084H180.584V319.082H184.323V313.643H187.261L190.904 319.082H195.275ZM190.977 307.936C190.977 308.665 190.726 309.248 190.224 309.685C189.738 310.122 189.034 310.34 188.111 310.34H184.323V305.459H188.038C188.961 305.459 189.682 305.662 190.2 306.067C190.718 306.471 190.977 307.078 190.977 307.888V307.936ZM215.445 310.583V310.535C215.445 309.32 215.219 308.187 214.765 307.135C214.328 306.067 213.705 305.144 212.896 304.367C212.102 303.574 211.155 302.95 210.054 302.497C208.954 302.028 207.748 301.793 206.436 301.793C205.125 301.793 203.911 302.028 202.794 302.497C201.693 302.95 200.738 303.582 199.929 304.391C199.135 305.184 198.512 306.115 198.059 307.184C197.606 308.236 197.379 309.369 197.379 310.583V310.632C197.379 311.846 197.597 312.987 198.035 314.056C198.488 315.108 199.111 316.031 199.904 316.824C200.714 317.601 201.669 318.224 202.77 318.694C203.87 319.147 205.076 319.373 206.388 319.373C207.699 319.373 208.905 319.147 210.006 318.694C211.123 318.224 212.078 317.593 212.871 316.799C213.681 315.99 214.312 315.059 214.765 314.007C215.219 312.939 215.445 311.797 215.445 310.583ZM211.536 310.632C211.536 311.36 211.406 312.048 211.147 312.696C210.904 313.327 210.556 313.886 210.103 314.371C209.666 314.857 209.132 315.237 208.5 315.512C207.869 315.788 207.181 315.925 206.436 315.925C205.675 315.925 204.979 315.788 204.348 315.512C203.733 315.221 203.191 314.833 202.721 314.347C202.268 313.861 201.912 313.295 201.653 312.647C201.41 312 201.288 311.312 201.288 310.583V310.535C201.288 309.806 201.41 309.126 201.653 308.495C201.912 307.847 202.26 307.281 202.697 306.795C203.15 306.309 203.684 305.929 204.299 305.654C204.931 305.379 205.627 305.241 206.388 305.241C207.132 305.241 207.82 305.387 208.452 305.678C209.083 305.953 209.625 306.334 210.079 306.819C210.548 307.305 210.904 307.872 211.147 308.519C211.406 309.167 211.536 309.855 211.536 310.583V310.632ZM241.705 310.583V310.535C241.705 309.337 241.486 308.228 241.049 307.208C240.612 306.172 239.989 305.273 239.179 304.512C238.386 303.752 237.431 303.161 236.314 302.74C235.213 302.303 233.999 302.084 232.672 302.084H226.042V319.082H232.672C233.999 319.082 235.213 318.863 236.314 318.426C237.431 317.989 238.386 317.39 239.179 316.629C239.989 315.869 240.612 314.97 241.049 313.934C241.486 312.898 241.705 311.781 241.705 310.583ZM237.795 310.632C237.795 311.393 237.666 312.081 237.407 312.696C237.164 313.311 236.816 313.845 236.363 314.298C235.926 314.752 235.391 315.1 234.76 315.343C234.129 315.585 233.432 315.707 232.672 315.707H229.782V305.459H232.672C233.432 305.459 234.129 305.589 234.76 305.848C235.391 306.091 235.926 306.439 236.363 306.892C236.816 307.345 237.164 307.888 237.407 308.519C237.666 309.15 237.795 309.838 237.795 310.583V310.632ZM257.98 319.082V315.755H248.752V312.186H256.766V308.859H248.752V305.411H257.858V302.084H245.037V319.082H257.98ZM283.033 314.42V314.371C283.033 313.238 282.749 312.356 282.183 311.724C281.616 311.077 280.839 310.567 279.852 310.195C280.159 310.033 280.443 309.838 280.702 309.612C280.977 309.385 281.212 309.126 281.406 308.835C281.616 308.527 281.778 308.187 281.891 307.815C282.021 307.443 282.086 307.014 282.086 306.528V306.479C282.086 305.136 281.584 304.067 280.58 303.274C279.593 302.481 278.225 302.084 276.476 302.084H268.585V319.082H276.671C277.626 319.082 278.492 318.985 279.269 318.791C280.062 318.596 280.734 318.305 281.284 317.916C281.851 317.528 282.28 317.042 282.571 316.46C282.879 315.877 283.033 315.197 283.033 314.42ZM278.37 307.159C278.37 307.791 278.128 308.252 277.642 308.543C277.156 308.819 276.501 308.956 275.675 308.956H272.227V305.362H275.918C276.711 305.362 277.318 305.516 277.739 305.824C278.16 306.115 278.37 306.544 278.37 307.111V307.159ZM279.317 313.958C279.317 314.59 279.083 315.059 278.613 315.367C278.144 315.658 277.496 315.804 276.671 315.804H272.227V312.064H276.549C277.521 312.064 278.225 312.234 278.662 312.574C279.099 312.898 279.317 313.343 279.317 313.91V313.958ZM299.052 319.082V315.755H289.824V312.186H297.837V308.859H289.824V305.411H298.93V302.084H286.109V319.082H299.052ZM319.374 319.082V302.084H315.343L310.875 309.272L306.407 302.084H302.376V319.082H306.043V308.058L310.778 315.245H310.875L315.659 307.985V319.082H319.374ZM343.68 319.082V315.755H334.453V312.186H342.466V308.859H334.453V305.411H343.559V302.084H330.738V319.082H343.68ZM359.292 314.056V314.007C359.292 313.262 359.171 312.623 358.928 312.089C358.701 311.554 358.353 311.093 357.884 310.705C357.431 310.3 356.864 309.96 356.184 309.685C355.52 309.393 354.759 309.134 353.901 308.908C353.173 308.713 352.566 308.543 352.08 308.398C351.611 308.252 351.238 308.098 350.963 307.936C350.688 307.774 350.494 307.596 350.381 307.402C350.283 307.192 350.235 306.949 350.235 306.674V306.625C350.235 306.204 350.413 305.856 350.769 305.581C351.141 305.289 351.692 305.144 352.42 305.144C353.149 305.144 353.877 305.298 354.606 305.605C355.334 305.897 356.079 306.301 356.84 306.819L358.782 304.002C357.908 303.306 356.945 302.772 355.893 302.4C354.857 302.028 353.715 301.841 352.469 301.841C351.595 301.841 350.793 301.963 350.065 302.206C349.336 302.448 348.705 302.796 348.171 303.25C347.653 303.703 347.248 304.245 346.957 304.877C346.665 305.492 346.52 306.188 346.52 306.965V307.014C346.52 307.855 346.649 308.56 346.908 309.126C347.183 309.693 347.564 310.17 348.049 310.559C348.535 310.931 349.126 311.247 349.822 311.506C350.518 311.765 351.295 312 352.153 312.21C352.865 312.388 353.44 312.558 353.877 312.72C354.33 312.882 354.679 313.044 354.921 313.206C355.18 313.368 355.35 313.546 355.431 313.74C355.528 313.918 355.577 314.128 355.577 314.371V314.42C355.577 314.922 355.358 315.318 354.921 315.61C354.5 315.885 353.901 316.022 353.124 316.022C352.153 316.022 351.255 315.836 350.429 315.464C349.62 315.092 348.826 314.59 348.049 313.958L345.84 316.605C346.86 317.528 347.993 318.216 349.239 318.669C350.486 319.106 351.757 319.325 353.052 319.325C353.974 319.325 354.816 319.212 355.577 318.985C356.338 318.742 356.993 318.402 357.544 317.965C358.094 317.512 358.523 316.961 358.831 316.314C359.138 315.65 359.292 314.897 359.292 314.056ZM375.407 305.532V302.084H361.323V305.532H366.496V319.082H370.235V305.532H375.407ZM394.844 319.082L387.559 301.963H384.111L376.826 319.082H380.639L382.193 315.27H389.381L390.935 319.082H394.844ZM388.045 311.967H383.528L385.787 306.455L388.045 311.967ZM412.159 319.082L408.006 313.011C409.091 312.607 409.965 311.975 410.629 311.117C411.309 310.243 411.649 309.118 411.649 307.742V307.693C411.649 305.929 411.082 304.553 409.949 303.565C408.832 302.578 407.262 302.084 405.238 302.084H397.468V319.082H401.207V313.643H404.145L407.788 319.082H412.159ZM407.861 307.936C407.861 308.665 407.61 309.248 407.108 309.685C406.622 310.122 405.918 310.34 404.995 310.34H401.207V305.459H404.922C405.845 305.459 406.566 305.662 407.084 306.067C407.602 306.471 407.861 307.078 407.861 307.888V307.936ZM438.856 319.082L431.572 301.963H428.124L420.839 319.082H424.651L426.205 315.27H433.393L434.947 319.082H438.856ZM432.057 311.967H427.541L429.799 306.455L432.057 311.967ZM456.584 319.082V302.084H452.893V312.55L444.928 302.084H441.48V319.082H445.171V308.276L453.403 319.082H456.584ZM464.574 319.082V302.084H460.834V319.082H464.574ZM485.819 319.082V302.084H481.789L477.321 309.272L472.853 302.084H468.822V319.082H472.488V308.058L477.223 315.245H477.321L482.104 307.985V319.082H485.819ZM506.464 319.082L499.179 301.963H495.731L488.446 319.082H492.258L493.812 315.27H501L502.554 319.082H506.464ZM499.665 311.967H495.148L497.406 306.455L499.665 311.967ZM521.301 319.082V315.682H512.827V302.084H509.087V319.082H521.301Z" fill="white"/>
<path fill-rule="evenodd" clip-rule="evenodd" d="M316.811 2.14683C315.538 2.87457 312.279 5.85483 309.57 8.35356C302.928 14.4801 305.595 15.9558 295.863 17.6637C291.251 18.4726 285.931 19.7119 285.777 21.2843L280.088 22.2241C275.174 25.9642 275.604 24.9049 273.364 26.198C273.62 27.0064 270.597 29.3065 268.967 29.5641C264.98 32.9111 266.17 34.6107 266.17 33.8349C265.135 35.4052 265.135 35.6452 261.773 37.4555C260.221 40.0416 256.554 39.542 256.554 40.939C256.554 42.2823 252.463 43.0079 252.157 44.301C248.907 46.1356 245.951 46.8092 244.14 47.5851C242.847 50.4299 244.14 50.5078 244.916 50.4299C246.209 49.7319 244.399 50.7725 248.02 48.6975C250.202 47.4468 255.195 45.1938 259.399 43.0079C264.863 40.1673 268.772 36.4236 268.967 35.6452C269.152 34.9076 270.307 33.059 271.342 31.9252C272.267 30.9115 272.44 30.253 272.892 29.5641C273.34 28.8793 274.561 28.0543 275.604 27.73C276.648 27.4062 278.665 26.6112 280.088 25.9642C281.51 25.3166 284.602 24.4218 286.958 23.9754C289.314 23.5291 292.055 22.7413 293.051 22.2241C294.045 21.7074 297.471 19.9612 300.663 18.3438C305.583 15.8508 307.313 14.611 312.028 10.1975C315.087 7.33411 317.807 4.99157 318.071 4.99157C318.335 4.99157 318.699 5.45553 318.879 6.0219C319.531 8.07788 323.237 12.1216 325.45 13.1928C326.689 13.7922 330.14 14.8763 333.119 15.601C340.401 17.373 341.089 17.6921 343.485 20.4133C346.372 23.6935 348.536 28.5229 349.69 34.2595C350.231 36.9491 351.022 39.8218 351.447 40.6442C353.191 44.0181 357.6 46.3958 363.584 47.1897C365.889 47.4954 366.001 47.5849 365.799 48.9586C365.35 52.015 370.292 54.044 372.055 51.5272C372.755 50.5279 372.806 50.5714 373.113 52.4324C373.727 56.1445 373.481 60.0175 372.54 61.457C372.043 62.2168 369.463 65.2033 366.805 68.0935C360.893 74.5253 359.778 76.7685 360.12 81.5493C360.445 86.0916 362.025 89.4044 366.777 95.5067C370.45 100.224 370.604 100.534 370.634 103.265C370.652 104.83 370.935 107.856 371.265 109.989C371.594 112.123 371.871 115.678 371.88 117.89C371.895 121.672 371.821 121.939 370.647 122.386C369.188 122.941 369.1 123.181 368.006 129.644C367.549 132.346 366.577 136.949 365.847 139.873C364.667 144.602 364.411 145.153 363.528 144.873C362.117 144.425 361.226 145.367 360.164 148.433L359.236 151.109L358.903 147.747C358.719 145.898 358.541 142.639 358.507 140.506C358.445 136.612 356.593 128.42 355.139 125.608C354.734 124.825 353.248 121.165 351.836 117.474C342.305 92.5564 328.998 67.5985 321.939 61.4001C319.557 59.3089 317.294 59.2432 316.437 61.2403C316.101 62.0223 315.778 62.7382 315.72 62.8302C315.662 62.9223 314.906 62.6311 314.04 62.1837C312.43 61.3509 309.461 61.1358 307.356 61.6996C306.224 62.0032 306.19 62.1666 306.516 65.7582L306.855 69.5004L305.376 69.8718C302.573 70.5752 296.614 73.6098 294.651 75.3332C293.531 76.317 291.825 78.7686 290.688 81.0294C289.197 83.9958 287.916 85.6711 285.62 87.6608C282.141 90.6742 281.654 91.9678 282.425 96.1522C283.114 99.8959 286.3 106.019 288.675 108.165C290.98 110.248 294.358 111.314 300.239 111.815C302.504 112.009 304.921 112.381 305.61 112.643C306.805 113.097 306.851 113.282 306.608 116.675C306.309 120.852 304.16 125.874 301.556 128.482C300.632 129.407 298.1 131.493 295.93 133.118C281.343 144.036 279.37 147.974 275.221 156.023C272.087 162.102 269.01 165.945 268.967 168.953C268.942 170.764 269.532 170.505 270.307 171.281C271.083 172.057 271.742 172.179 272.329 171.539C273.53 170.233 276.2 167.762 277.674 163.883C279.071 160.206 283.718 152.645 286.772 149.078C288.217 147.392 292.101 143.647 295.404 140.757C304.842 132.499 308.129 128.536 310.197 122.92C312.43 116.858 312.194 113.004 309.429 110.366C307.471 108.499 305.636 107.899 300.324 107.392C294.759 106.861 291.811 105.293 289.269 101.511C287.248 98.5056 287.191 97.4411 288.881 94.2633C289.592 92.9257 290.174 91.538 290.174 91.1795C290.174 90.8211 290.891 89.8441 291.767 89.0087C292.644 88.1734 294.174 86.0393 295.169 84.2663C297.412 80.2655 300.667 77.3457 304.535 75.8634C314.608 72.0033 317.434 70.3714 318.875 67.5866C319.319 66.7275 319.886 66.0246 320.136 66.0246C320.737 66.0246 323.785 70.6714 325.755 74.5925C326.623 76.318 329.074 81.7877 331.202 86.7474C339.727 106.612 341.987 111.749 347.111 122.92L352.449 134.558L352.616 150.802C352.811 169.848 352.058 172.87 357.414 170.686C357.88 170.496 358.993 166.101 359.168 165.224C359.768 162.222 361.809 157.637 362.644 157.414C365.027 156.777 368.73 148.635 370.865 139.342C371.553 136.347 372.28 134.299 372.655 134.299C375.26 134.299 377.068 127.672 377.068 118.128C377.068 112.469 377.239 110.727 377.891 109.731C378.655 108.566 378.63 108.181 377.554 104.448C375.94 98.8439 374.445 95.9753 370.323 90.5754C366.828 85.9964 365.172 82.6499 365.172 80.1667C365.172 77.804 366.646 75.4165 371.331 70.1878C378.003 62.7423 377.87 63.0738 377.71 54.223C377.507 42.98 376.978 42.3748 366.549 41.4547C359.369 40.8211 358.415 40.5356 356.446 38.4304C355.471 37.3877 355.134 36.2622 354.797 32.924C354.265 27.6374 353.219 24.4803 350.741 20.6703C346.702 14.4626 340.491 10.2466 333.831 9.19406C326.706 8.06754 324.469 6.75998 322.501 2.57094C321.989 1.48425 321.315 0.423922 321.002 0.214961C319.862 -0.544331 319.075 0.852721 316.811 2.14683ZM372.93 48.4999C372.93 48.7843 372.698 48.8733 372.413 48.6974C372.129 48.5216 371.896 48.145 371.896 47.8606C371.896 47.5761 372.129 47.4871 372.413 47.663C372.698 47.8388 372.93 48.2154 372.93 48.4999ZM311.931 65.5255C313.16 66.1834 313.212 66.8408 312.068 67.2799C311.194 67.6151 310.368 66.8237 310.353 65.6367C310.344 64.8505 310.632 64.8303 311.931 65.5255Z" fill="white"/>
<path d="M7.07071 238.043C6.95187 238.043 6.75381 238.063 6.47653 238.102C6.23886 238.142 5.96158 238.182 5.64468 238.221C5.3674 238.261 5.09012 238.3 4.81283 238.34C4.53555 238.38 4.31769 238.399 4.15924 238.399C3.05011 238.399 2.07962 237.944 1.24777 237.033C0.415924 236.082 0 234.834 0 233.289C0 232.26 0.3367 231.269 1.0101 230.319C1.6835 229.368 2.73321 228.576 4.15924 227.942C4.59497 227.744 4.93167 227.526 5.16934 227.288C5.44662 227.011 5.58526 226.635 5.58526 226.159C5.58526 224.892 5.54565 223.545 5.46643 222.119C5.42682 220.653 5.34759 218.95 5.22876 217.009C5.18915 216.613 5.0505 216.237 4.81283 215.88C4.61478 215.524 4.3771 215.127 4.09982 214.692C3.86215 214.216 3.64429 213.701 3.44623 213.147C3.24817 212.592 3.14914 211.899 3.14914 211.067C3.14914 210.315 3.24817 209.463 3.44623 208.512C3.6839 207.522 4.13943 206.611 4.81283 205.779C5.52585 204.908 6.49634 204.195 7.7243 203.64C8.99188 203.046 10.6358 202.749 12.656 202.749C13.4878 202.749 14.181 202.828 14.7356 202.986C15.2902 203.145 15.7655 203.343 16.1616 203.581C16.5973 203.779 16.9737 203.957 17.2906 204.115C17.6471 204.274 18.0036 204.353 18.3601 204.353C18.9939 204.353 20.2614 204.234 22.1628 203.997C24.0642 203.759 26.3418 203.422 28.9958 202.986C31.6894 202.551 34.6405 202.056 37.8491 201.501C41.0972 200.946 44.385 200.352 47.7124 199.718C51.0398 199.045 54.288 198.372 57.4569 197.698C60.6259 197.025 63.4977 196.371 66.0725 195.738C66.8647 195.539 67.5579 195.44 68.1521 195.44C68.984 195.44 69.6376 195.638 70.1129 196.035C70.6278 196.391 71.0042 196.847 71.2418 197.401C71.4795 197.956 71.6181 198.59 71.6578 199.303C71.737 199.976 71.7766 200.61 71.7766 201.204C71.7766 202.234 71.4201 203.204 70.7071 204.115C70.0337 204.987 68.9047 205.68 67.3203 206.195C63.3987 207.344 59.4375 208.354 55.4367 209.225C51.4755 210.057 47.4747 210.83 43.4343 211.543C39.3939 212.216 35.3337 212.83 31.2537 213.385C27.1737 213.939 23.1135 214.494 19.0731 215.048C18.5185 215.127 18.1026 215.345 17.8253 215.702C17.548 216.019 17.4094 216.454 17.4094 217.009V219.445C17.4094 220.119 17.4292 220.812 17.4688 221.525C17.5084 222.238 17.5876 222.891 17.7065 223.486C17.8649 224.08 18.063 224.575 18.3007 224.971C18.5383 225.328 18.8552 225.506 19.2513 225.506C20.202 225.506 21.6677 225.308 23.6482 224.912C25.6684 224.515 27.9263 224.04 30.4219 223.486C32.957 222.891 35.5912 222.258 38.3244 221.584C41.0972 220.871 43.7116 220.237 46.1676 219.683C48.6235 219.089 50.7823 218.594 52.6441 218.197C54.5058 217.801 55.813 217.603 56.5657 217.603C57.6748 217.603 58.5066 218.019 59.0612 218.851C59.6554 219.643 60.0515 220.653 60.2496 221.881C60.2496 222.079 60.2694 222.258 60.309 222.416C60.3486 222.575 60.3684 222.753 60.3684 222.951C60.3684 224.1 60.0119 225.169 59.2989 226.159C58.6255 227.11 57.3975 227.823 55.615 228.298C55.1396 228.457 54.1889 228.714 52.7629 229.071C51.3369 229.388 49.6534 229.784 47.7124 230.259C45.7714 230.695 43.672 231.17 41.4141 231.685C39.1563 232.2 36.938 232.715 34.7594 233.23C32.5807 233.705 30.5407 234.181 28.6393 234.656C26.7776 235.092 25.2525 235.448 24.0642 235.726C22.9947 236.003 22.3411 236.221 22.1034 236.379C21.9053 236.538 21.8063 236.736 21.8063 236.973C21.8855 237.845 22.3213 238.657 23.1135 239.41C23.9453 240.162 24.9752 240.855 26.2032 241.489C27.4708 242.123 28.877 242.697 30.4219 243.212C32.0063 243.727 33.6304 244.163 35.2941 244.519C36.9974 244.836 38.6611 245.094 40.2852 245.292C41.9093 245.49 43.4145 245.589 44.8009 245.589C45.3951 245.589 46.2468 245.589 47.3559 245.589C48.465 245.589 49.6732 245.569 50.9804 245.53C52.3272 245.45 53.6938 245.351 55.0802 245.232C56.5062 245.114 57.7738 244.955 58.8829 244.757C60.0317 244.519 60.9626 244.242 61.6756 243.925C62.4282 243.569 62.8045 243.153 62.8045 242.677C62.8045 242.242 62.6461 241.786 62.3292 241.311C62.0519 240.836 61.9132 240.321 61.9132 239.766C61.9132 238.974 62.1311 238.201 62.5668 237.449C63.0026 236.656 63.5571 235.963 64.2305 235.369C64.9435 234.735 65.7358 234.24 66.6072 233.884C67.5183 233.488 68.4294 233.289 69.3405 233.289C70.4892 233.289 71.5389 233.527 72.4896 234.003C73.4403 234.438 74.2523 235.032 74.9257 235.785C75.6387 236.498 76.1735 237.33 76.53 238.281C76.9261 239.231 77.1242 240.202 77.1242 241.192C77.1242 243.806 76.1537 246.064 74.2127 247.966C72.3113 249.867 69.8158 251.432 66.7261 252.66C63.6364 253.927 60.1505 254.858 56.2686 255.452C52.3866 256.086 48.4848 256.403 44.5633 256.403C39.9683 256.403 35.7695 256.086 31.9667 255.452C28.164 254.858 24.7574 253.888 21.7469 252.541C18.7364 251.194 16.1418 249.451 13.9632 247.312C11.7845 245.133 10.002 242.499 8.61557 239.41C8.14023 238.498 7.62527 238.043 7.07071 238.043Z" fill="white"/>
<path d="M83.6007 255.215C83.3234 249.946 82.8679 245.094 82.2341 240.657C81.6399 236.181 81.0061 232.279 80.3327 228.952C79.6989 225.625 79.1246 222.931 78.6096 220.871C78.1343 218.811 77.8966 217.524 77.8966 217.009C77.8966 216.256 78.1739 215.524 78.7285 214.811C79.3226 214.098 80.0555 213.484 80.9269 212.969C81.7984 212.414 82.7292 211.978 83.7195 211.661C84.7494 211.345 85.6803 211.186 86.5122 211.186C87.1856 211.186 87.7599 211.305 88.2353 211.543C88.7502 211.78 89.1067 212.176 89.3048 212.731C89.5029 213.404 89.6811 214.117 89.8396 214.87C90.0376 215.583 90.2357 216.454 90.4337 217.484C90.6714 218.95 90.9883 219.683 91.3844 219.683C91.8202 219.683 92.3153 219.029 92.8699 217.722C93.6621 215.9 94.5138 214.395 95.4248 213.206C96.3359 212.018 97.3064 211.087 98.3363 210.414C99.4058 209.701 100.495 209.206 101.604 208.928C102.753 208.651 103.941 208.512 105.169 208.512C108.893 208.512 112.042 209.978 114.617 212.909C117.231 215.84 119.271 220.079 120.737 225.625C120.935 226.258 121.113 226.674 121.272 226.872C121.43 227.031 121.608 227.11 121.806 227.11C122.004 227.11 122.202 227.031 122.4 226.872C122.638 226.674 122.856 226.298 123.054 225.743C124.005 223.169 125.114 220.99 126.381 219.208C127.649 217.385 128.956 215.92 130.303 214.811C131.689 213.662 133.096 212.83 134.522 212.315C135.948 211.8 137.314 211.543 138.622 211.543C141.038 211.543 143.216 212.434 145.157 214.216C147.138 215.959 148.881 218.673 150.386 222.357C151.931 226.001 153.258 230.636 154.367 236.26C155.516 241.846 156.467 248.481 157.219 256.165C157.219 258.304 156.566 259.79 155.258 260.622C153.951 261.493 152.169 261.929 149.911 261.929C148.445 261.929 147.296 261.612 146.465 260.978C145.633 260.344 145.157 259.513 145.039 258.483C144.524 252.977 143.949 248.085 143.316 243.806C142.721 239.489 142.068 235.864 141.355 232.933C140.642 229.962 139.849 227.704 138.978 226.159C138.146 224.615 137.215 223.842 136.185 223.842C135.67 223.842 135.017 224.218 134.225 224.971C133.472 225.724 132.66 227.11 131.788 229.13C130.917 231.111 130.006 233.844 129.055 237.33C128.105 240.776 127.193 245.193 126.322 250.58C126.084 252.085 125.352 253.234 124.124 254.026C122.935 254.819 121.47 255.215 119.727 255.215C117.706 255.215 116.3 254.898 115.508 254.264C114.755 253.63 114.339 252.561 114.26 251.055C114.102 248.441 113.825 245.846 113.428 243.272C113.072 240.657 112.616 238.182 112.062 235.844C111.507 233.468 110.893 231.289 110.22 229.309C109.546 227.288 108.833 225.545 108.081 224.08C107.328 222.575 106.556 221.406 105.764 220.574C104.971 219.742 104.199 219.326 103.446 219.326C102.456 219.326 101.485 220.02 100.535 221.406C99.6237 222.792 98.7918 224.753 98.0392 227.288C97.3262 229.823 96.7518 232.874 96.3161 236.439C95.8804 240.004 95.6625 243.985 95.6625 248.382C95.6625 249.134 95.6823 249.887 95.7219 250.639C95.7615 251.352 95.7813 252.105 95.7813 252.897C95.7813 254.086 95.5833 255.056 95.1872 255.809C94.8307 256.561 94.2959 257.156 93.5829 257.591C92.9095 258.027 92.1172 258.324 91.2062 258.483C90.2951 258.641 89.3048 258.72 88.2353 258.72C87.245 258.72 86.4528 258.641 85.8586 258.483C85.2644 258.364 84.8089 258.166 84.492 257.888C84.1751 257.611 83.9572 257.235 83.8384 256.759C83.7195 256.324 83.6403 255.809 83.6007 255.215Z" fill="white"/>
<path d="M158.942 211.186C158.942 209.641 159.636 208.473 161.022 207.68C162.408 206.849 164.389 206.433 166.964 206.433C167.558 206.433 168.093 206.512 168.568 206.67C169.043 206.829 169.459 207.146 169.816 207.621C170.212 208.057 170.568 208.671 170.885 209.463C171.202 210.255 171.519 211.265 171.836 212.493C172.153 213.88 172.47 214.573 172.787 214.573C173.064 214.573 173.401 213.999 173.797 212.85C174.51 210.592 175.441 208.631 176.589 206.967C177.778 205.264 179.105 203.858 180.57 202.749C182.036 201.6 183.621 200.748 185.324 200.194C187.067 199.639 188.889 199.362 190.79 199.362C194.633 199.362 198.217 200.095 201.545 201.56C204.872 202.986 207.744 204.987 210.16 207.562C212.577 210.097 214.478 213.107 215.865 216.593C217.251 220.039 217.944 223.783 217.944 227.823C217.944 232.101 217.192 236.062 215.686 239.707C214.221 243.351 212.161 246.5 209.507 249.154C206.853 251.768 203.684 253.808 200 255.274C196.356 256.779 192.355 257.532 187.998 257.532L184.967 257.413C183.185 257.413 182.294 258.423 182.294 260.443L185.324 287.716C185.284 288.39 185.047 289.003 184.611 289.558C184.215 290.152 183.66 290.667 182.947 291.103C182.274 291.539 181.462 291.875 180.511 292.113C179.6 292.351 178.649 292.47 177.659 292.47C174.807 292.47 173.262 291.539 173.024 289.677C172.193 282.468 171.262 275.615 170.232 269.118C169.241 262.622 168.212 256.581 167.142 250.996C166.112 245.371 165.102 240.261 164.112 235.666C163.121 231.071 162.23 227.07 161.438 223.664C160.685 220.257 160.091 217.484 159.655 215.345C159.18 213.206 158.942 211.82 158.942 211.186ZM178.253 226.872C178.253 229.447 178.352 232.002 178.55 234.537C178.748 237.033 179.065 239.746 179.501 242.677C179.739 244.46 180.709 245.47 182.412 245.708C183.442 245.945 184.591 246.183 185.859 246.421C187.166 246.619 188.255 246.718 189.127 246.718C191.662 246.718 193.959 246.342 196.019 245.589C198.079 244.836 199.842 243.767 201.307 242.38C202.773 240.954 203.902 239.271 204.694 237.33C205.486 235.389 205.882 233.23 205.882 230.853C205.882 227.962 205.486 225.268 204.694 222.773C203.902 220.237 202.812 218.039 201.426 216.177C200.079 214.315 198.475 212.85 196.613 211.78C194.791 210.711 192.81 210.176 190.671 210.176C188.81 210.176 187.106 210.592 185.561 211.424C184.056 212.216 182.749 213.345 181.64 214.811C180.57 216.237 179.739 217.98 179.144 220.039C178.55 222.099 178.253 224.377 178.253 226.872Z" fill="white"/>
<path d="M225.4 232.91C225.4 232.236 225.479 231.484 225.638 230.652C225.796 229.82 225.875 228.909 225.875 227.919C225.875 227.245 225.578 226.73 224.984 226.374C224.43 226.017 223.796 225.621 223.083 225.186C222.37 224.75 221.716 224.195 221.122 223.522C220.567 222.848 220.29 221.878 220.29 220.61C220.29 219.699 220.528 218.788 221.003 217.877C221.518 216.966 222.251 216.134 223.202 215.382C225.539 213.639 227.955 212.074 230.451 210.688C232.986 209.301 235.501 208.133 237.997 207.182C240.532 206.231 243.027 205.498 245.483 204.984C247.939 204.469 250.296 204.211 252.554 204.211C256.357 204.211 259.922 204.924 263.249 206.35C266.616 207.737 269.528 209.658 271.984 212.114C274.479 214.53 276.44 217.382 277.866 220.67C279.332 223.918 280.064 227.404 280.064 231.127C280.064 234.772 279.292 238.238 277.747 241.525C276.242 244.774 274.202 247.626 271.627 250.082C269.052 252.537 266.022 254.478 262.536 255.904C259.09 257.37 255.446 258.103 251.603 258.103C247.84 258.103 244.354 257.469 241.146 256.202C237.937 254.934 235.164 253.191 232.827 250.973C230.49 248.715 228.668 246.061 227.361 243.011C226.054 239.921 225.4 236.554 225.4 232.91ZM252.91 247.408C254.574 247.408 256.297 247.071 258.08 246.398C259.862 245.724 261.486 244.754 262.952 243.486C264.457 242.179 265.685 240.595 266.636 238.733C267.626 236.871 268.121 234.772 268.121 232.434C268.121 230.058 267.686 227.84 266.814 225.78C265.943 223.72 264.735 221.937 263.19 220.432C261.685 218.887 259.882 217.679 257.783 216.808C255.723 215.936 253.485 215.5 251.069 215.5C246.672 215.5 243.305 216.649 240.968 218.947C238.63 221.205 237.462 224.69 237.462 229.404C237.462 231.979 237.838 234.375 238.591 236.594C239.383 238.772 240.472 240.674 241.859 242.298C243.245 243.882 244.869 245.13 246.731 246.041C248.632 246.952 250.692 247.408 252.91 247.408Z" fill="white"/>
<path d="M320.024 208.215C318.558 208.215 317.271 208.611 316.162 209.404C315.052 210.156 314.102 211.226 313.31 212.612C312.517 213.959 311.864 215.563 311.349 217.425C310.834 219.247 310.418 221.248 310.101 223.426C309.784 225.605 309.566 227.882 309.447 230.259C309.329 232.636 309.269 235.032 309.269 237.449C309.269 240.618 309.388 243.747 309.626 246.837C309.903 249.887 310.042 252.719 310.042 255.333C310.042 257.037 309.408 258.364 308.14 259.314C306.873 260.305 305.07 260.8 302.733 260.8C302.297 260.8 301.802 260.76 301.248 260.681C300.693 260.602 300.158 260.443 299.643 260.206C299.168 259.968 298.732 259.631 298.336 259.196C297.98 258.799 297.782 258.245 297.742 257.532C297.386 254.046 296.871 250.481 296.197 246.837C295.524 243.192 294.672 239.568 293.642 235.963C292.652 232.319 291.444 228.714 290.018 225.149C288.631 221.584 287.027 218.098 285.205 214.692C284.888 214.098 284.611 213.543 284.373 213.028C284.175 212.513 284.076 212.018 284.076 211.543C284.076 210.948 284.334 210.315 284.848 209.641C285.403 208.928 286.076 208.275 286.869 207.68C287.701 207.086 288.592 206.611 289.542 206.254C290.533 205.858 291.483 205.66 292.395 205.66C293.9 205.66 295.227 206.71 296.376 208.809C297.524 210.869 298.594 214.177 299.584 218.732C299.782 219.524 299.941 220.079 300.059 220.396C300.178 220.713 300.337 220.871 300.535 220.871C300.97 220.871 301.248 220.198 301.367 218.851C301.842 215.088 302.654 211.86 303.803 209.166C304.951 206.433 306.377 204.195 308.081 202.452C309.824 200.669 311.804 199.362 314.023 198.53C316.28 197.698 318.756 197.282 321.45 197.282C322.995 197.282 324.559 197.421 326.144 197.698C327.728 197.976 329.154 198.392 330.422 198.946C331.689 199.501 332.719 200.174 333.512 200.966C334.304 201.759 334.7 202.65 334.7 203.64C334.7 204.353 334.541 205.205 334.225 206.195C333.947 207.146 333.571 208.077 333.096 208.988C332.62 209.859 332.066 210.612 331.432 211.246C330.838 211.84 330.224 212.137 329.59 212.137C328.877 212.137 328.184 211.939 327.51 211.543C326.837 211.107 326.104 210.651 325.312 210.176C324.559 209.701 323.747 209.265 322.876 208.869C322.044 208.433 321.093 208.215 320.024 208.215Z" fill="white"/>
<path d="M339.869 192.054C338.721 192.054 337.631 191.895 336.601 191.578C335.611 191.222 334.74 190.746 333.987 190.152C333.274 189.518 332.7 188.786 332.264 187.954C331.828 187.122 331.61 186.211 331.61 185.221C331.61 183.557 332.264 182.21 333.571 181.18C334.918 180.15 336.7 179.635 338.919 179.635C339.948 179.635 340.939 179.833 341.889 180.229C342.84 180.586 343.672 181.081 344.385 181.715C345.138 182.349 345.732 183.101 346.168 183.973C346.603 184.805 346.821 185.676 346.821 186.587C346.821 188.29 346.187 189.637 344.92 190.628C343.692 191.578 342.008 192.054 339.869 192.054ZM331.729 210.176C331.729 208.79 332.323 207.661 333.512 206.789C334.74 205.878 336.344 205.423 338.324 205.423C341.889 205.423 343.791 206.651 344.028 209.106C344.187 210.81 344.345 212.731 344.504 214.87C344.702 217.009 344.88 219.287 345.039 221.703C345.237 224.08 345.395 226.555 345.514 229.13C345.672 231.665 345.811 234.181 345.93 236.676C346.049 239.132 346.148 241.509 346.227 243.806C346.306 246.104 346.346 248.203 346.346 250.105C346.346 252.085 345.633 253.571 344.207 254.561C342.82 255.551 340.78 256.046 338.087 256.046C336.859 256.046 335.888 255.749 335.175 255.155C334.502 254.601 334.165 253.769 334.165 252.66C334.165 247.193 334.027 242.083 333.749 237.33C333.512 232.537 333.234 228.279 332.917 224.555C332.64 220.832 332.363 217.742 332.086 215.286C331.848 212.79 331.729 211.087 331.729 210.176Z" fill="white"/>
<path d="M358.11 232.933C358.11 232.26 358.19 231.507 358.348 230.675C358.507 229.843 358.586 228.932 358.586 227.942C358.586 227.269 358.289 226.754 357.695 226.397C357.14 226.041 356.506 225.644 355.793 225.209C355.08 224.773 354.427 224.218 353.832 223.545C353.278 222.872 353.001 221.901 353.001 220.634C353.001 219.722 353.238 218.811 353.714 217.9C354.229 216.989 354.961 216.157 355.912 215.405C358.249 213.662 360.665 212.097 363.161 210.711C365.696 209.324 368.211 208.156 370.707 207.205C373.242 206.254 375.738 205.522 378.194 205.007C380.65 204.492 383.006 204.234 385.264 204.234C389.067 204.234 392.632 204.947 395.96 206.373C399.327 207.76 402.238 209.681 404.694 212.137C407.189 214.553 409.15 217.405 410.576 220.693C412.042 223.941 412.775 227.427 412.775 231.15C412.775 234.795 412.002 238.261 410.457 241.549C408.952 244.797 406.912 247.649 404.337 250.105C401.763 252.561 398.732 254.502 395.247 255.928C391.8 257.393 388.156 258.126 384.314 258.126C380.551 258.126 377.065 257.492 373.856 256.225C370.648 254.957 367.875 253.214 365.538 250.996C363.201 248.738 361.378 246.084 360.071 243.034C358.764 239.944 358.11 236.577 358.11 232.933ZM385.621 247.431C387.285 247.431 389.008 247.094 390.79 246.421C392.573 245.747 394.197 244.777 395.662 243.509C397.168 242.202 398.396 240.618 399.346 238.756C400.337 236.894 400.832 234.795 400.832 232.458C400.832 230.081 400.396 227.863 399.525 225.803C398.653 223.743 397.445 221.961 395.9 220.455C394.395 218.91 392.593 217.702 390.493 216.831C388.433 215.959 386.195 215.524 383.779 215.524C379.382 215.524 376.015 216.672 373.678 218.97C371.341 221.228 370.172 224.714 370.172 229.427C370.172 232.002 370.549 234.399 371.301 236.617C372.093 238.796 373.183 240.697 374.569 242.321C375.956 243.905 377.58 245.153 379.441 246.064C381.343 246.975 383.403 247.431 385.621 247.431Z" fill="white"/>
<path d="M464.349 259.493C464.349 258.186 464.29 256.482 464.171 254.383C464.092 252.283 463.973 249.966 463.815 247.431C463.656 244.896 463.478 242.202 463.28 239.35C463.082 236.498 462.864 233.666 462.626 230.853C462.389 228.041 462.151 225.328 461.913 222.713C461.715 220.059 461.517 217.663 461.319 215.524C461.002 212.473 460.566 210.235 460.012 208.809C459.457 207.383 458.546 206.67 457.279 206.67C456.09 206.67 455.298 207.007 454.902 207.68C454.545 208.354 454.328 209.186 454.248 210.176C454.209 211.166 454.189 212.256 454.189 213.444C454.229 214.593 454.05 215.662 453.654 216.653C453.298 217.643 452.604 218.475 451.575 219.148C450.545 219.821 448.96 220.158 446.821 220.158C445.316 220.158 444.029 219.544 442.959 218.316C441.889 217.049 441.355 215.227 441.355 212.85C441.355 209.522 442.345 206.512 444.326 203.818C446.267 201.085 449.02 198.768 452.585 196.866C456.15 194.925 460.448 193.42 465.478 192.351C470.509 191.281 476.094 190.746 482.234 190.746C486.631 190.746 490.691 191.242 494.415 192.232C498.138 193.183 501.347 194.529 504.04 196.272C506.774 197.976 508.913 200.016 510.457 202.392C512.002 204.729 512.775 207.284 512.775 210.057C512.775 213.187 511.864 216.177 510.042 219.029C508.219 221.881 505.704 224.496 502.496 226.872C499.327 229.249 495.583 231.329 491.266 233.111C486.948 234.854 482.313 236.221 477.362 237.211C475.975 237.449 475.282 238.3 475.282 239.766C475.282 240.756 475.342 242.004 475.46 243.509C475.619 244.975 475.758 246.52 475.876 248.144C476.035 249.768 476.173 251.372 476.292 252.957C476.451 254.541 476.53 255.947 476.53 257.175C476.53 259.394 476.015 260.978 474.985 261.929C473.955 262.88 472.43 263.355 470.41 263.355C468.509 263.355 467.023 263.018 465.954 262.345C464.884 261.711 464.349 260.76 464.349 259.493ZM500.475 211.78C500.475 210.433 499.901 209.146 498.752 207.918C497.603 206.69 496.059 205.601 494.118 204.65C492.177 203.699 489.919 202.947 487.344 202.392C484.809 201.838 482.135 201.56 479.323 201.56C477.936 201.56 476.768 201.62 475.817 201.739C474.906 201.818 474.173 201.976 473.619 202.214C473.064 202.452 472.668 202.769 472.43 203.165C472.232 203.521 472.133 203.997 472.133 204.591C472.133 204.987 472.192 205.918 472.311 207.383C472.43 208.809 472.589 210.473 472.787 212.374C472.985 214.276 473.183 216.276 473.381 218.376C473.619 220.435 473.856 222.297 474.094 223.961C474.213 225.189 474.371 226.001 474.569 226.397C474.807 226.793 475.163 226.991 475.639 226.991C476.986 226.991 478.53 226.773 480.273 226.338C482.016 225.862 483.799 225.248 485.621 224.496C487.483 223.703 489.285 222.812 491.028 221.822C492.81 220.792 494.395 219.722 495.781 218.613C497.207 217.465 498.336 216.316 499.168 215.167C500.04 213.979 500.475 212.85 500.475 211.78Z" fill="white"/>
<path d="M567.142 239.647C568.291 238.657 569.42 238.162 570.529 238.162C571.163 238.162 571.737 238.32 572.252 238.637C572.767 238.954 573.341 239.449 573.975 240.123C574.569 241.034 574.985 241.786 575.223 242.38C575.5 242.935 575.639 243.49 575.639 244.044C575.639 245.232 575.045 246.361 573.856 247.431C571.955 249.015 569.895 250.441 567.677 251.709C565.458 252.937 563.141 253.987 560.725 254.858C558.309 255.73 555.813 256.383 553.238 256.819C550.663 257.294 548.108 257.532 545.573 257.532C542.365 257.532 539.354 257.116 536.542 256.284C533.729 255.492 531.214 254.343 528.996 252.838C526.817 251.333 524.975 249.53 523.47 247.431C521.965 245.292 520.895 242.895 520.261 240.241C519.905 239.132 519.568 238.419 519.251 238.102C518.974 237.746 518.499 237.568 517.825 237.568C516.36 237.568 515.231 237.211 514.438 236.498C513.646 235.785 513.25 234.755 513.25 233.408C513.25 232.854 513.29 232.497 513.369 232.339L513.488 231.15C513.686 229.724 514.062 228.695 514.617 228.061C515.211 227.427 516.122 227.11 517.35 227.11H518.241C519.905 227.11 521.073 226.338 521.747 224.793C522.975 222.06 524.539 219.564 526.441 217.306C528.342 215.048 530.481 213.127 532.858 211.543C535.235 209.919 537.77 208.671 540.463 207.799C543.197 206.888 545.969 206.433 548.782 206.433C551.713 206.433 554.446 206.868 556.982 207.74C559.556 208.572 561.794 209.74 563.696 211.246C565.597 212.751 567.083 214.514 568.152 216.534C569.261 218.554 569.816 220.733 569.816 223.07C569.816 224.694 569.499 226.179 568.865 227.526C568.231 228.873 567.32 230.061 566.132 231.091C564.944 232.081 563.498 232.893 561.794 233.527C560.131 234.161 558.229 234.577 556.09 234.775L535.472 236.855C534.68 236.855 534.026 237.053 533.512 237.449C533.036 237.845 532.799 238.38 532.799 239.053C532.799 240.083 533.175 241.073 533.927 242.024C534.72 242.975 535.75 243.826 537.017 244.579C538.324 245.292 539.81 245.866 541.474 246.302C543.177 246.738 544.92 246.956 546.702 246.956C548.406 246.956 550.148 246.797 551.931 246.48C553.753 246.124 555.536 245.629 557.279 244.995C559.061 244.361 560.784 243.608 562.448 242.737C564.112 241.826 565.676 240.796 567.142 239.647ZM553.892 224.317C554.486 224.199 555.001 223.921 555.437 223.486C555.872 223.01 556.09 222.436 556.09 221.762C556.09 221.168 555.872 220.614 555.437 220.099C555.001 219.584 554.407 219.128 553.654 218.732C552.902 218.296 552.03 217.96 551.04 217.722C550.049 217.484 549 217.366 547.891 217.366C546.267 217.366 544.603 217.603 542.9 218.079C541.196 218.554 539.651 219.188 538.265 219.98C536.879 220.733 535.75 221.584 534.878 222.535C534.007 223.446 533.571 224.357 533.571 225.268C533.571 226.179 534.126 226.635 535.235 226.635C535.908 226.635 536.997 226.555 538.503 226.397C540.008 226.239 541.672 226.06 543.494 225.862C545.316 225.625 547.158 225.367 549.02 225.09C550.881 224.813 552.505 224.555 553.892 224.317Z" fill="white"/>
<path d="M584.967 184.032C584.967 181.933 585.561 180.467 586.75 179.635C587.938 178.764 589.899 178.328 592.632 178.328C593.622 178.328 594.454 178.427 595.128 178.625C595.841 178.784 596.435 179.101 596.91 179.576C597.425 180.051 597.821 180.685 598.099 181.477C598.416 182.23 598.673 183.2 598.871 184.389C599.346 188.073 599.861 191.875 600.416 195.797C601.01 199.718 601.624 203.66 602.258 207.621C602.496 209.404 603.426 210.295 605.05 210.295C605.486 210.295 606.199 210.255 607.19 210.176C608.219 210.057 609.428 209.938 610.814 209.82C612.2 209.661 613.686 209.503 615.27 209.344C616.894 209.186 618.499 209.047 620.083 208.928C621.707 208.77 623.232 208.651 624.658 208.572C626.124 208.453 627.411 208.393 628.52 208.393C629.392 208.393 630.085 208.572 630.6 208.928C631.115 209.245 631.511 209.681 631.788 210.235C632.105 210.75 632.303 211.345 632.383 212.018C632.501 212.652 632.561 213.305 632.561 213.979C632.561 214.573 632.442 215.187 632.204 215.821C632.006 216.454 631.709 217.029 631.313 217.544C630.957 218.019 630.501 218.415 629.946 218.732C629.392 219.049 628.758 219.208 628.045 219.208C624.599 219.208 621.113 219.326 617.588 219.564C614.102 219.762 610.616 220.039 607.13 220.396C605.348 220.634 604.456 221.525 604.456 223.07C604.456 223.188 604.476 223.347 604.516 223.545C604.555 223.703 604.575 223.842 604.575 223.961C605.05 227.407 605.486 230.636 605.882 233.646C606.318 236.656 606.675 239.35 606.952 241.727C607.269 244.064 607.506 246.025 607.665 247.609C607.863 249.154 607.962 250.184 607.962 250.699C607.962 252.125 607.823 253.313 607.546 254.264C607.269 255.254 606.813 256.046 606.179 256.641C605.546 257.274 604.694 257.71 603.624 257.948C602.595 258.225 601.287 258.364 599.703 258.364C598.198 258.364 597.089 258.007 596.375 257.294C595.662 256.581 595.266 255.492 595.187 254.026C594.949 249.352 594.573 244.658 594.058 239.944C593.543 235.191 592.949 230.457 592.276 225.743C591.919 224.04 591.028 223.188 589.602 223.188C589.483 223.188 589.344 223.208 589.186 223.248C589.028 223.288 588.889 223.307 588.77 223.307C586.314 223.862 583.997 224.416 581.818 224.971C579.64 225.526 577.6 226.12 575.698 226.754C574.629 227.11 573.678 227.368 572.846 227.526C572.014 227.645 571.262 227.704 570.588 227.704C569.677 227.704 569.004 227.308 568.568 226.516C568.132 225.684 567.914 224.654 567.914 223.426C567.914 222.99 567.954 222.495 568.033 221.941C568.112 221.347 568.271 220.772 568.509 220.218C568.707 219.623 569.024 219.089 569.459 218.613C569.855 218.098 570.41 217.682 571.123 217.366C572.787 216.692 575.005 215.999 577.778 215.286C580.551 214.533 583.68 213.84 587.166 213.206C587.958 213.008 588.572 212.691 589.008 212.256C589.483 211.78 589.721 211.087 589.721 210.176C589.721 209.978 589.721 209.78 589.721 209.582C589.721 209.344 589.681 209.106 589.602 208.869C588.968 205.225 588.354 201.917 587.76 198.946C587.205 195.936 586.71 193.361 586.274 191.222C585.878 189.083 585.561 187.399 585.324 186.171C585.086 184.943 584.967 184.23 584.967 184.032Z" fill="white"/>
<path d="M241.537 200.36C244.988 193.609 249.023 186.46 251.12 178.388" stroke="white" stroke-width="7.9878" stroke-linecap="round"/>
</svg>
